<svg xmlns="http://www.w3.org/2000/svg" width="286" height="285" viewBox="0 0 286 285" version="1.1"><path d="M 0.100 59.750 C 0.190 113.313, 0.345 118.842, 1.592 113.144 C 3.914 102.532, 8.905 89.056, 14.535 78.198 C 34.557 39.580, 71.043 11.927, 113.619 3.100 C 119.054 1.973, 124.850 0.882, 126.500 0.676 C 128.150 0.469, 100.362 0.232, 64.750 0.150 L 0 0 0.100 59.750 M 163.500 1.145 C 177.956 2.988, 200.221 10.264, 213 17.322 C 248.074 36.693, 272.026 66.631, 283.514 105.458 L 285.894 113.500 285.947 56.750 L 286 0 221.250 0.126 C 178.165 0.211, 158.842 0.552, 163.500 1.145 M 123.500 18.568 C 96.811 22.643, 72.565 35.383, 52.993 55.614 C 37.375 71.759, 27.711 89.208, 21.766 112 C 19.034 122.474, 18.757 125.017, 18.666 140.500 C 18.562 158.239, 19.189 162.958, 23.617 177.796 C 28.490 194.125, 37.424 210.217, 49.333 224.113 C 52.450 227.750, 55 231.537, 55 232.530 C 55 236.100, 56.139 232.992, 61.399 215.067 C 64.339 205.051, 67.165 196.435, 67.680 195.920 C 68.195 195.405, 73.766 193.262, 80.058 191.158 C 89.452 188.017, 91.556 186.953, 91.813 185.215 C 92.059 183.552, 91.062 182.558, 87.164 180.583 C 84.435 179.200, 80.833 176.407, 79.158 174.376 C 75.596 170.054, 71.609 159.863, 69.957 150.860 C 69.316 147.362, 68.532 143.375, 68.215 142 C 67.655 139.570, 67.628 139.563, 67.252 141.739 C 66.275 147.378, 71.901 167.244, 76.175 173.245 C 78.335 176.280, 77.966 177.333, 74.364 178.419 C 72.461 178.992, 72.132 178.541, 71.348 174.281 L 70.467 169.500 64.189 169.854 L 57.910 170.208 58.555 167.354 C 58.910 165.784, 59.638 162.755, 60.173 160.623 C 60.708 158.490, 60.775 156.409, 60.323 155.997 C 59.870 155.585, 56.462 154.255, 52.750 153.042 C 49.037 151.829, 46 150.548, 46 150.195 C 46 149.843, 48.722 146.807, 52.050 143.450 L 58.099 137.346 53.626 133.223 C 50.655 130.484, 47.282 128.557, 43.577 127.479 C 40.510 126.588, 38 125.696, 38 125.498 C 38 125.300, 41.636 122.576, 46.079 119.444 C 50.523 116.313, 54.406 113.107, 54.707 112.320 C 55.358 110.625, 49.547 101.892, 44.540 97.039 C 42.593 95.152, 41 93.290, 41 92.902 C 41 92.515, 46.287 91.875, 52.750 91.482 C 59.213 91.089, 65.043 90.330, 65.708 89.796 C 67.238 88.566, 66.496 84.404, 63.279 76.180 C 61.919 72.704, 61.008 69.658, 61.255 69.412 C 61.776 68.891, 71.767 72.005, 77.289 74.409 L 81.077 76.059 82.535 72.571 C 83.336 70.653, 84.525 65.802, 85.176 61.792 C 85.827 57.781, 86.686 54.115, 87.086 53.644 C 87.841 52.754, 92.096 57.092, 99.113 65.905 L 103.202 71.040 109.465 65.182 C 114.526 60.447, 123.844 54, 125.626 54 C 125.832 54, 126.011 57.938, 126.024 62.750 C 126.047 71.057, 127.093 78.427, 128.442 79.776 C 128.782 80.115, 132.984 79.071, 137.780 77.455 C 142.576 75.840, 147.061 74.369, 147.746 74.186 C 148.432 74.004, 146.504 78.164, 143.463 83.431 C 140.422 88.699, 137.697 93.626, 137.408 94.380 C 137.007 95.424, 138.872 96.034, 145.190 96.929 C 158.557 98.822, 158.283 98.165, 149.425 107.076 C 145.125 111.401, 141.808 115.100, 142.053 115.295 C 142.299 115.490, 146.276 117.252, 150.891 119.209 C 159.199 122.733, 159.259 122.784, 156.891 124.327 C 154.704 125.752, 145.687 129.978, 138.648 132.876 C 135.085 134.343, 135.996 135.689, 143.651 140.268 C 146.593 142.027, 149 143.761, 149 144.121 C 149 144.481, 146.038 146.034, 142.419 147.572 C 136.298 150.173, 135.882 150.549, 136.479 152.935 C 138.516 161.076, 138.534 161, 134.582 161 C 129.922 161, 129 163.156, 131.953 167.151 C 133.176 168.804, 134.024 170.267, 133.838 170.401 C 133.652 170.535, 131.399 171.423, 128.831 172.374 C 126.263 173.325, 123.430 175.221, 122.535 176.587 C 121.640 177.953, 118.903 180.045, 116.454 181.235 C 113.617 182.613, 112 184.056, 112 185.211 C 112 186.207, 113.760 189.605, 115.911 192.761 C 121.232 200.569, 131 220.703, 131 223.864 C 131 225.577, 129.447 228.008, 126.335 231.168 L 121.670 235.904 128.085 242.751 C 131.613 246.517, 134.665 249.193, 134.867 248.697 C 135.070 248.201, 132.595 245.109, 129.367 241.826 L 123.500 235.857 128.404 231.569 C 133.011 227.540, 133.271 227.056, 132.703 223.558 C 131.988 219.153, 122.358 198.976, 118.630 194.072 C 117.196 192.186, 116.190 190.476, 116.395 190.272 C 116.948 189.718, 134.076 194.676, 135.081 195.681 C 136.155 196.755, 143.717 223.209, 148.721 243.401 C 150.779 251.705, 152.583 258.687, 152.731 258.917 C 153.421 259.986, 154.002 257.725, 155.327 248.826 C 157.079 237.050, 163.014 223.344, 165.825 224.580 C 170.831 226.781, 181.307 228.876, 187 228.816 L 193.500 228.747 186.500 227.868 C 176.746 226.644, 169.727 224.275, 163.139 219.981 C 156.428 215.607, 155.002 214.083, 150.937 206.939 C 148.196 202.121, 147.906 201.871, 148.396 204.750 C 149.117 208.979, 146.954 209.108, 142.923 205.077 C 139.455 201.609, 139.202 198.284, 142.124 194.570 L 144.247 191.870 141.624 187.050 C 138.644 181.575, 138.333 177.141, 140.500 171 C 141.325 168.662, 142 165.093, 142 163.070 C 142 158.429, 146.106 151.813, 154.347 143.176 C 164.361 132.680, 175.552 128.499, 191.867 129.159 C 199.448 129.465, 201.515 129.988, 208.835 133.451 C 218.320 137.939, 223.826 143.287, 229.609 153.629 C 232.707 159.168, 233.289 161.331, 234.199 170.661 C 234.972 178.601, 234.935 182.715, 234.052 186.658 C 233.039 191.183, 233.096 192.298, 234.432 194.206 C 236.981 197.845, 236.350 200.874, 232.250 204.688 C 230.188 206.606, 225.029 211.546, 220.786 215.666 L 213.071 223.156 215.936 228.328 C 217.512 231.173, 219.533 236.088, 220.429 239.250 C 222.200 245.511, 223.522 246.944, 222.733 241.750 C 222.278 238.749, 222.993 237.724, 232.057 228.377 C 249.672 210.214, 260.413 190.185, 265.495 166.022 C 267.547 156.267, 267.547 126.733, 265.495 116.978 C 262.213 101.375, 255.564 85.678, 246.288 71.635 C 240.017 62.142, 223.405 45.565, 213.593 39.010 C 186.581 20.963, 154.896 13.774, 123.500 18.568 M 0.079 226.250 L 0 285 57.250 284.939 L 114.500 284.879 104.500 282.014 C 52.132 267.011, 12.781 225.686, 1.546 173.895 C 0.304 168.166, 0.151 173.619, 0.079 226.250 M 285 176.123 C 285 179.641, 278.390 198.268, 274.149 206.705 C 267.234 220.457, 258.164 232.871, 246.522 244.515 C 227.113 263.929, 206.583 275.758, 180.500 282.556 L 171.500 284.902 228.750 284.951 L 286 285 286 229.500 C 286 198.975, 285.775 174, 285.500 174 C 285.225 174, 285 174.956, 285 176.123 M 83.044 202.702 C 77.510 215.886, 74.862 223.989, 75.465 225.889 C 75.784 226.894, 78.042 229.589, 80.484 231.877 C 83.579 234.778, 84.740 236.562, 84.319 237.769 C 83.772 239.339, 83.892 239.330, 85.608 237.670 C 87.456 235.881, 87.374 235.727, 82.028 230.975 L 76.556 226.110 77.828 221.305 C 78.528 218.662, 81.033 211.662, 83.395 205.750 C 85.757 199.838, 87.372 195, 86.983 195 C 86.595 195, 84.822 198.466, 83.044 202.702" stroke="none" fill="#64dba3" fill-rule="evenodd"/><path d="M 126.500 0.607 C 92.201 5.687, 63.524 19.716, 40.620 42.620 C 24.622 58.618, 12.649 77.945, 5.694 99 C 0.314 115.288, -0.262 120.449, 0.221 148 C 0.627 171.182, 0.798 172.984, 3.386 181.500 C 18.816 232.276, 54.911 268.027, 104.923 282.073 C 115.302 284.987, 115.465 285, 142.923 284.993 C 166.664 284.987, 171.613 284.719, 178.500 283.065 C 204.718 276.769, 226.771 264.271, 246.522 244.515 C 267.090 223.942, 281.160 198.225, 285.517 173.240 C 287.846 159.886, 287.568 121.923, 285.065 111.500 C 276.645 76.438, 255.782 45.776, 226.865 25.964 C 211 15.094, 191.325 6.687, 172 2.520 C 164.700 0.946, 133.165 -0.380, 126.500 0.607 M 123.500 18.568 C 96.811 22.643, 72.565 35.383, 52.993 55.614 C 37.375 71.759, 27.711 89.208, 21.766 112 C 19.034 122.474, 18.757 125.017, 18.666 140.500 C 18.562 158.239, 19.189 162.958, 23.617 177.796 C 28.490 194.125, 37.424 210.217, 49.333 224.113 C 52.450 227.750, 55 231.537, 55 232.530 C 55 236.100, 56.139 232.992, 61.399 215.067 C 64.339 205.051, 67.165 196.435, 67.680 195.920 C 68.195 195.405, 73.766 193.262, 80.058 191.158 C 89.452 188.017, 91.556 186.953, 91.813 185.215 C 92.059 183.552, 91.062 182.558, 87.164 180.583 C 84.435 179.200, 80.833 176.407, 79.158 174.376 C 75.596 170.054, 71.609 159.863, 69.957 150.860 C 69.316 147.362, 68.532 143.375, 68.215 142 C 67.655 139.570, 67.628 139.563, 67.252 141.739 C 66.275 147.378, 71.901 167.244, 76.175 173.245 C 78.335 176.280, 77.966 177.333, 74.364 178.419 C 72.461 178.992, 72.132 178.541, 71.348 174.281 L 70.467 169.500 64.189 169.854 L 57.910 170.208 58.555 167.354 C 58.910 165.784, 59.638 162.755, 60.173 160.623 C 60.708 158.490, 60.775 156.409, 60.323 155.997 C 59.870 155.585, 56.462 154.255, 52.750 153.042 C 49.037 151.829, 46 150.548, 46 150.195 C 46 149.843, 48.722 146.807, 52.050 143.450 L 58.099 137.346 53.626 133.223 C 50.655 130.484, 47.282 128.557, 43.577 127.479 C 40.510 126.588, 38 125.696, 38 125.498 C 38 125.300, 41.636 122.576, 46.079 119.444 C 50.523 116.313, 54.406 113.107, 54.707 112.320 C 55.358 110.625, 49.547 101.892, 44.540 97.039 C 42.593 95.152, 41 93.290, 41 92.902 C 41 92.515, 46.287 91.875, 52.750 91.482 C 59.213 91.089, 65.043 90.330, 65.708 89.796 C 67.238 88.566, 66.496 84.404, 63.279 76.180 C 61.919 72.704, 61.008 69.658, 61.255 69.412 C 61.776 68.891, 71.767 72.005, 77.289 74.409 L 81.077 76.059 82.535 72.571 C 83.336 70.653, 84.525 65.802, 85.176 61.792 C 85.827 57.781, 86.686 54.115, 87.086 53.644 C 87.841 52.754, 92.096 57.092, 99.113 65.905 L 103.202 71.040 109.465 65.182 C 114.526 60.447, 123.844 54, 125.626 54 C 125.832 54, 126.011 57.938, 126.024 62.750 C 126.047 71.057, 127.093 78.427, 128.442 79.776 C 128.782 80.115, 132.984 79.071, 137.780 77.455 C 142.576 75.840, 147.061 74.369, 147.746 74.186 C 148.432 74.004, 146.504 78.164, 143.463 83.431 C 140.422 88.699, 137.697 93.626, 137.408 94.380 C 137.007 95.424, 138.872 96.034, 145.190 96.929 C 158.557 98.822, 158.283 98.165, 149.425 107.076 C 145.125 111.401, 141.808 115.100, 142.053 115.295 C 142.299 115.490, 146.276 117.252, 150.891 119.209 C 159.199 122.733, 159.259 122.784, 156.891 124.327 C 154.704 125.752, 145.687 129.978, 138.648 132.876 C 135.085 134.343, 135.996 135.689, 143.651 140.268 C 146.593 142.027, 149 143.761, 149 144.121 C 149 144.481, 146.038 146.034, 142.419 147.572 C 136.298 150.173, 135.882 150.549, 136.479 152.935 C 138.516 161.076, 138.534 161, 134.582 161 C 129.922 161, 129 163.156, 131.953 167.151 C 133.176 168.804, 134.024 170.267, 133.838 170.401 C 133.652 170.535, 131.399 171.423, 128.831 172.374 C 126.263 173.325, 123.430 175.221, 122.535 176.587 C 121.640 177.953, 118.903 180.045, 116.454 181.235 C 113.617 182.613, 112 184.056, 112 185.211 C 112 186.207, 113.760 189.605, 115.911 192.761 C 121.232 200.569, 131 220.703, 131 223.864 C 131 225.577, 129.447 228.008, 126.335 231.168 L 121.670 235.904 128.085 242.751 C 131.613 246.517, 134.665 249.193, 134.867 248.697 C 135.070 248.201, 132.595 245.109, 129.367 241.826 L 123.500 235.857 128.404 231.569 C 133.011 227.540, 133.271 227.056, 132.703 223.558 C 131.988 219.153, 122.358 198.976, 118.630 194.072 C 117.196 192.186, 116.190 190.476, 116.395 190.272 C 116.948 189.718, 134.076 194.676, 135.081 195.681 C 136.155 196.755, 143.717 223.209, 148.721 243.401 C 150.779 251.705, 152.583 258.687, 152.731 258.917 C 153.421 259.986, 154.002 257.725, 155.327 248.826 C 157.079 237.050, 163.014 223.344, 165.825 224.580 C 170.831 226.781, 181.307 228.876, 187 228.816 L 193.500 228.747 186.500 227.868 C 176.746 226.644, 169.727 224.275, 163.139 219.981 C 156.428 215.607, 155.002 214.083, 150.937 206.939 C 148.196 202.121, 147.906 201.871, 148.396 204.750 C 149.117 208.979, 146.954 209.108, 142.923 205.077 C 139.455 201.609, 139.202 198.284, 142.124 194.570 L 144.247 191.870 141.624 187.050 C 138.644 181.575, 138.333 177.141, 140.500 171 C 141.325 168.662, 142 165.093, 142 163.070 C 142 158.429, 146.106 151.813, 154.347 143.176 C 164.361 132.680, 175.552 128.499, 191.867 129.159 C 199.448 129.465, 201.515 129.988, 208.835 133.451 C 218.320 137.939, 223.826 143.287, 229.609 153.629 C 232.707 159.168, 233.289 161.331, 234.199 170.661 C 234.972 178.601, 234.935 182.715, 234.052 186.658 C 233.039 191.183, 233.096 192.298, 234.432 194.206 C 236.981 197.845, 236.350 200.874, 232.250 204.688 C 230.188 206.606, 225.029 211.546, 220.786 215.666 L 213.071 223.156 215.936 228.328 C 217.512 231.173, 219.533 236.088, 220.429 239.250 C 222.200 245.511, 223.522 246.944, 222.733 241.750 C 222.278 238.749, 222.993 237.724, 232.057 228.377 C 249.672 210.214, 260.413 190.185, 265.495 166.022 C 267.547 156.267, 267.547 126.733, 265.495 116.978 C 262.213 101.375, 255.564 85.678, 246.288 71.635 C 240.017 62.142, 223.405 45.565, 213.593 39.010 C 186.581 20.963, 154.896 13.774, 123.500 18.568 M 0.434 143.500 C 0.433 157.250, 0.574 163.014, 0.747 156.308 C 0.919 149.603, 0.920 138.353, 0.748 131.308 C 0.576 124.264, 0.434 129.750, 0.434 143.500 M 83.044 202.702 C 77.510 215.886, 74.862 223.989, 75.465 225.889 C 75.784 226.894, 78.042 229.589, 80.484 231.877 C 83.579 234.778, 84.740 236.562, 84.319 237.769 C 83.772 239.339, 83.892 239.330, 85.608 237.670 C 87.456 235.881, 87.374 235.727, 82.028 230.975 L 76.556 226.110 77.828 221.305 C 78.528 218.662, 81.033 211.662, 83.395 205.750 C 85.757 199.838, 87.372 195, 86.983 195 C 86.595 195, 84.822 198.466, 83.044 202.702" stroke="none" fill="#24252c" fill-rule="evenodd"/></svg>